Patient4_TMGait_0pt5_01_left_15_EMG.mot
version=1
nRows=13
nColumns=33
inDegrees=no
endheader
time	1LAddLong	2LGlutMax	3LGlutMed	4LIliopsoas	5LSemiMemb	6LBicFemLong	7LRecFem	8LVastMed	9LVastLat	10LGasMed	11LTibAnt	12lTibPost	13LPeroneusLong	14LSol	15LExtDigLong	16LFlexDigLong	17RAddLong	18RGlutMax	19RGlutMed	20RIliopsoas	21RSemiMemb	22RBicFemLong	23RRecFem	24RVastMed	25RVastLat	26RGasMed	27RTibAnt	28RTibPost	29RPeroneusLong	30RSol	31RExtDigLong	32RFlexDigLong
20.99	0.033264	0.15182	-0.11047	0.009155	0.16083	0.030518	0.121	0.003204	0.010071	0.050659	-0.040741	-0.014191	-0.006104	-0.040894	0.072174	0.017548	-0.068359	-0.009308	-0.15518	0.019073	0.097656	-0.005188	-0.007782	-0.020447	-0.098267	0.001678	0.009155	0.000305	-0.029602	-0.032501	0.006104	-0.015869
20.991	0.023346	0.12375	-0.10483	0.019684	0.050964	0.11551	0.10193	0.004578	0.006714	-0.24033	-0.037231	-0.000153	0.00946	-0.10773	0.044708	0.21378	-0.045319	0.010986	-0.14633	-0.027008	-0.061951	0.066833	0.018921	0.00946	-0.066833	-0.006256	-0.027161	0.003815	0.018768	-0.024872	-0.001831	-0.014191
20.992	0.019379	0.12604	-0.10666	0.009155	0.007935	0.085297	0.11856	0.005646	0.008087	-0.3305	-0.00473	0.015869	0.030212	-0.29816	0.010071	-0.093384	-0.036316	-0.024872	-0.027466	-0.045471	0.22369	0.028534	-0.047455	-0.023651	-0.020294	-0.009613	-0.014801	0.002136	-0.003357	-0.071411	0.001221	-0.01297
20.993	0.018463	0.13306	-0.11124	0.013123	-0.025177	0.04776	0.12405	0.00885	0.007782	-0.035706	0.04715	0.018005	0.011292	-0.28595	0.049896	0.52734	-0.051575	-0.21255	-0.17456	0.00946	0.45822	-0.025024	-0.068207	-0.017853	0.027466	-0.002441	-0.007019	0.002289	-0.016632	-0.031891	-0.000916	-0.011139
20.994	0.007019	0.15884	-0.11551	0.016785	-0.031433	0.004425	0.12222	0.00946	0.011749	0.20203	0.060577	0.012054	-0.002899	-0.39887	0.089874	0.11581	-0.07431	-0.21393	-0.26352	-0.019531	0.17456	0.058289	-0.031281	-0.007019	0.045929	-0.003357	-0.007477	-0.002136	-0.00061	0.00351	0.003967	-0.002747
20.995	0.017395	0.13992	-0.11276	0.01358	-0.041809	0.024719	0.11292	0.006256	0.010529	0.30472	0.034485	0.009766	0.022736	-0.41443	0.093689	-0.088959	-0.03006	-0.19562	-0.24674	-0.037842	-0.082855	0.14526	-0.085754	-0.056763	0.070496	-0.00412	-0.002136	0.00351	-0.030823	-0.010071	0.002747	-0.011597
20.996	0.01297	0.15823	-0.042725	-0.006714	-0.024719	-0.009308	0.12024	0.010071	0.002136	0.062256	0.018768	0.003357	0.007019	-0.42496	0.084686	-0.22705	-0.004272	-0.1976	-0.13657	-0.030975	-0.028381	0.13092	-0.070496	-0.1796	0.17609	-0.004272	-0.001831	0	-0.0383	-0.015717	0.002289	-0.005798
20.997	0.002594	0.15747	-0.006256	0.008392	-0.042725	0.077209	0.12894	0.012207	0.001526	-0.27557	0.010223	0.008087	-0.026703	-0.29816	0.070343	0.024872	0.031586	-0.11612	-0.16754	-0.041809	0.085144	0.13214	0.013123	-0.21042	0.12558	-0.009308	0.001831	0.00473	-0.054016	-0.025024	-0.003052	0.001373
20.998	-0.002441	0.12375	-0.077515	0.000153	-0.066681	0.063934	0.12268	0.010376	-0.023193	-0.34607	0.020447	0.007019	-0.025482	-0.092316	0.054626	-0.22263	0.05127	-0.012665	-0.35751	-0.061188	0.16144	0.24277	0.041809	-0.24216	0.081024	-0.001678	0.005798	0.000153	-0.065155	-0.032196	0.004425	-0.005493
20.999	0.021057	0.16998	-0.052948	0.000916	-0.037689	0.039063	0.096283	0.011139	-0.014648	-0.39108	0.023041	0.001984	-0.02243	0.011139	0.030365	-0.20996	0.036011	0.030975	-0.26825	-0.14587	0.25192	0.094757	0.1088	-0.1207	0.054169	-0.007172	0.001984	0.001984	-0.029755	-0.018311	0.000763	-0.007172
21	0.017242	0.16129	-0.052338	-0.009918	0.016327	-0.044861	0.090332	0.009155	-0.019531	-0.42435	0.018005	0.001831	-0.035706	-0.006409	0.006866	0.66483	0.07019	0.073853	-0.095062	-0.17151	-0.006104	0.053864	0.12772	-0.16708	0.017548	-0.006714	-0.002747	0.001831	-0.002594	-0.051575	0.000916	-0.009003
21.001	0.024872	0.14908	-0.12283	-0.001221	0.031281	-0.09964	0.067902	0.007782	-0.018768	-0.35767	0.016479	0.006714	-0.04837	0.076447	-0.015106	0.17609	0.040436	0.040894	-0.19318	-0.0383	-0.24872	0.10437	0.19867	-0.090485	0.00061	-0.011749	-0.016022	-0.000153	-0.01236	-0.020599	-0.001984	0.001373
21.002	0.015564	0.15991	-0.034332	0.005188	-0.012665	-0.11002	0.046997	0.003815	-0.014038	0.16205	0.015259	0.011139	-0.059509	0.20218	-0.009003	-0.20996	0.004883	0.016479	-0.17029	0.026855	-0.38513	0.11292	0.048828	-0.077667	-0.054626	-0.001068	0.004578	-0.001373	-0.049591	-0.023346	-0.002441	-0.007629
